<?xml version="1.0" encoding="UTF-8" standalone="no"?><svg xmlns="http://www.w3.org/2000/svg" xmlns:xlink="http://www.w3.org/1999/xlink" contentStyleType="text/css" height="730px" preserveAspectRatio="none" style="width:652px;height:730px;background:#FFFFFF;" version="1.1" viewBox="0 0 652 730" width="652px" zoomAndPan="magnify"><defs/><g><!--MD5=[522b21f77ead019ec4c415cc091bb92b]
cluster exampleinterface--><g id="cluster_exampleinterface"><path d="M8.5,6 L150.5,6 A3.75,3.75 0 0 1 153,8.5 L160,28.2969 L642.5,28.2969 A2.5,2.5 0 0 1 645,30.7969 L645,720.5 A2.5,2.5 0 0 1 642.5,723 L8.5,723 A2.5,2.5 0 0 1 6,720.5 L6,8.5 A2.5,2.5 0 0 1 8.5,6 " style="stroke:#000000;stroke-width:1.5;fill:none;"/><line style="stroke:#000000;stroke-width:1.5;fill:none;" x1="6" x2="160" y1="28.2969" y2="28.2969"/><text fill="#000000" font-family="sans-serif" font-size="14" font-weight="bold" lengthAdjust="spacing" textLength="141" x="10" y="20.9951">exampleinterface</text></g><!--MD5=[42603eecb267091c13893a16d8c379fb]
cluster player--><g id="cluster_player"><path d="M32.5,162.5 L83.5,162.5 A3.75,3.75 0 0 1 86,165 L93,184.7969 L135.5,184.7969 A2.5,2.5 0 0 1 138,187.2969 L138,259 A2.5,2.5 0 0 1 135.5,261.5 L32.5,261.5 A2.5,2.5 0 0 1 30,259 L30,165 A2.5,2.5 0 0 1 32.5,162.5 " style="stroke:#000000;stroke-width:1.5;fill:none;"/><line style="stroke:#000000;stroke-width:1.5;fill:none;" x1="30" x2="93" y1="184.7969" y2="184.7969"/><text fill="#000000" font-family="sans-serif" font-size="14" font-weight="bold" lengthAdjust="spacing" textLength="50" x="34" y="177.4951">player</text></g><!--MD5=[313f8739ff9d76b8ab1ec526f2046b13]
cluster mathoperations--><g id="cluster_mathoperations"><path d="M164.5,130 L296.5,130 A3.75,3.75 0 0 1 299,132.5 L306,152.2969 L618.5,152.2969 A2.5,2.5 0 0 1 621,154.7969 L621,696.5 A2.5,2.5 0 0 1 618.5,699 L164.5,699 A2.5,2.5 0 0 1 162,696.5 L162,132.5 A2.5,2.5 0 0 1 164.5,130 " style="stroke:#000000;stroke-width:1.5;fill:none;"/><line style="stroke:#000000;stroke-width:1.5;fill:none;" x1="162" x2="306" y1="152.2969" y2="152.2969"/><text fill="#000000" font-family="sans-serif" font-size="14" font-weight="bold" lengthAdjust="spacing" textLength="131" x="166" y="144.9951">mathoperations</text></g><!--MD5=[3b7a83016d4883649c3b4b7e07fffe66]
cluster sum--><g id="cluster_sum"><path d="M201.5,303 L236.5,303 A3.75,3.75 0 0 1 239,305.5 L246,325.2969 L362.5,325.2969 A2.5,2.5 0 0 1 365,327.7969 L365,588.5 A2.5,2.5 0 0 1 362.5,591 L201.5,591 A2.5,2.5 0 0 1 199,588.5 L199,305.5 A2.5,2.5 0 0 1 201.5,303 " style="stroke:#000000;stroke-width:1.5;fill:none;"/><line style="stroke:#000000;stroke-width:1.5;fill:none;" x1="199" x2="246" y1="325.2969" y2="325.2969"/><text fill="#000000" font-family="sans-serif" font-size="14" font-weight="bold" lengthAdjust="spacing" textLength="34" x="203" y="317.9951">sum</text></g><!--MD5=[6a2e6cd29929926d15a4521f7fd234b6]
cluster substract--><g id="cluster_substract"><path d="M391.5,303 L472.5,303 A3.75,3.75 0 0 1 475,305.5 L482,325.2969 L594.5,325.2969 A2.5,2.5 0 0 1 597,327.7969 L597,588.5 A2.5,2.5 0 0 1 594.5,591 L391.5,591 A2.5,2.5 0 0 1 389,588.5 L389,305.5 A2.5,2.5 0 0 1 391.5,303 " style="stroke:#000000;stroke-width:1.5;fill:none;"/><line style="stroke:#000000;stroke-width:1.5;fill:none;" x1="389" x2="482" y1="325.2969" y2="325.2969"/><text fill="#000000" font-family="sans-serif" font-size="14" font-weight="bold" lengthAdjust="spacing" textLength="80" x="393" y="317.9951">substract</text></g><!--MD5=[a56aa0fe4c9910c221480cd60771421e]
class ExampleInterface--><g id="elem_ExampleInterface"><rect codeLine="3" fill="#F1F1F1" height="64.2969" id="ExampleInterface" rx="2.5" ry="2.5" style="stroke:#181818;stroke-width:0.5;" width="315" x="210.5" y="41"/><ellipse cx="299.75" cy="57" fill="#ADD1B2" rx="11" ry="11" style="stroke:#181818;stroke-width:1.0;"/><path d="M302.0938,52.6719 C301.1563,52.2344 300.5625,52.0938 299.6875,52.0938 C297.0625,52.0938 295.0625,54.1719 295.0625,56.8906 L295.0625,58.0156 C295.0625,60.5938 297.1719,62.4844 300.0625,62.4844 C301.2813,62.4844 302.4375,62.1875 303.1875,61.6406 C303.7656,61.2344 304.0938,60.7813 304.0938,60.3906 C304.0938,59.9375 303.7031,59.5469 303.2344,59.5469 C303.0156,59.5469 302.8125,59.625 302.625,59.8125 C302.1719,60.2969 302.1719,60.2969 301.9844,60.3906 C301.5625,60.6563 300.875,60.7813 300.1094,60.7813 C298.0625,60.7813 296.7656,59.6875 296.7656,57.9844 L296.7656,56.8906 C296.7656,55.1094 298.0156,53.7969 299.75,53.7969 C300.3281,53.7969 300.9375,53.9531 301.4063,54.2031 C301.8906,54.4844 302.0625,54.7031 302.1563,55.1094 C302.2188,55.5156 302.25,55.6406 302.3906,55.7656 C302.5313,55.9063 302.7656,56.0156 302.9844,56.0156 C303.25,56.0156 303.5156,55.875 303.6875,55.6563 C303.7969,55.5 303.8281,55.3125 303.8281,54.8906 L303.8281,53.4688 C303.8281,53.0313 303.8125,52.9063 303.7188,52.75 C303.5625,52.4844 303.2813,52.3438 302.9844,52.3438 C302.6875,52.3438 302.4844,52.4375 302.2656,52.75 L302.0938,52.6719 Z " fill="#000000"/><text fill="#000000" font-family="sans-serif" font-size="14" lengthAdjust="spacing" textLength="128" x="320.25" y="61.8467">ExampleInterface</text><line style="stroke:#181818;stroke-width:0.5;" x1="211.5" x2="524.5" y1="73" y2="73"/><line style="stroke:#181818;stroke-width:0.5;" x1="211.5" x2="524.5" y1="81" y2="81"/><ellipse cx="221.5" cy="92" fill="#84BE84" rx="3" ry="3" style="stroke:#038048;stroke-width:1.0;"/><text fill="#000000" font-family="sans-serif" font-size="14" lengthAdjust="spacing" textLength="289" x="230.5" y="97.9951">executeOperation(Operation operation)</text></g><!--MD5=[2cb47ba637a0d19583e6199456f6ad0b]
class Player--><g id="elem_Player"><rect codeLine="8" fill="#F1F1F1" height="48" id="Player" rx="2.5" ry="2.5" style="stroke:#181818;stroke-width:0.5;" width="76" x="46" y="197.5"/><ellipse cx="61" cy="213.5" fill="#ADD1B2" rx="11" ry="11" style="stroke:#181818;stroke-width:1.0;"/><path d="M63.3438,209.1719 C62.4063,208.7344 61.8125,208.5938 60.9375,208.5938 C58.3125,208.5938 56.3125,210.6719 56.3125,213.3906 L56.3125,214.5156 C56.3125,217.0938 58.4219,218.9844 61.3125,218.9844 C62.5313,218.9844 63.6875,218.6875 64.4375,218.1406 C65.0156,217.7344 65.3438,217.2813 65.3438,216.8906 C65.3438,216.4375 64.9531,216.0469 64.4844,216.0469 C64.2656,216.0469 64.0625,216.125 63.875,216.3125 C63.4219,216.7969 63.4219,216.7969 63.2344,216.8906 C62.8125,217.1563 62.125,217.2813 61.3594,217.2813 C59.3125,217.2813 58.0156,216.1875 58.0156,214.4844 L58.0156,213.3906 C58.0156,211.6094 59.2656,210.2969 61,210.2969 C61.5781,210.2969 62.1875,210.4531 62.6563,210.7031 C63.1406,210.9844 63.3125,211.2031 63.4063,211.6094 C63.4688,212.0156 63.5,212.1406 63.6406,212.2656 C63.7813,212.4063 64.0156,212.5156 64.2344,212.5156 C64.5,212.5156 64.7656,212.375 64.9375,212.1563 C65.0469,212 65.0781,211.8125 65.0781,211.3906 L65.0781,209.9688 C65.0781,209.5313 65.0625,209.4063 64.9688,209.25 C64.8125,208.9844 64.5313,208.8438 64.2344,208.8438 C63.9375,208.8438 63.7344,208.9375 63.5156,209.25 L63.3438,209.1719 Z " fill="#000000"/><text fill="#000000" font-family="sans-serif" font-size="14" lengthAdjust="spacing" textLength="44" x="75" y="218.3467">Player</text><line style="stroke:#181818;stroke-width:0.5;" x1="47" x2="121" y1="229.5" y2="229.5"/><line style="stroke:#181818;stroke-width:0.5;" x1="47" x2="121" y1="237.5" y2="237.5"/></g><!--MD5=[cca5d97aaf46870920fae66c9bd85cdd]
class Operation--><g id="elem_Operation"><rect codeLine="14" fill="#F1F1F1" height="113.1875" id="Operation" rx="2.5" ry="2.5" style="stroke:#181818;stroke-width:0.5;" width="229" x="178.5" y="165"/><ellipse cx="253.25" cy="181" fill="#A9DCDF" rx="11" ry="11" style="stroke:#181818;stroke-width:1.0;"/><path d="M255.3281,182.8125 L255.7188,183.7969 L255.3281,183.7969 C254.875,183.7969 254.7656,183.8125 254.6094,183.9219 C254.3594,184.0781 254.2031,184.3594 254.2031,184.6563 C254.2031,184.9219 254.3438,185.1719 254.5625,185.3281 C254.7031,185.4531 254.9063,185.5 255.3281,185.5 L257.6875,185.5 C258.0469,185.5 258.2656,185.4688 258.4063,185.375 C258.6563,185.2344 258.8125,184.9375 258.8125,184.6563 C258.8125,184.375 258.6719,184.125 258.4531,183.9688 C258.2813,183.8281 258.125,183.7969 257.6563,183.7969 L254.2656,175.5938 L250.5938,175.5938 C250.1406,175.5938 250.0156,175.6094 249.8594,175.7031 C249.6094,175.875 249.4531,176.1563 249.4531,176.4375 C249.4531,176.7188 249.5938,176.9688 249.8125,177.1406 C249.9844,177.25 250.1563,177.2813 250.5938,177.2813 L251.6719,177.2813 L249.0313,183.7969 C248.6094,183.7969 248.4531,183.8125 248.2969,183.9219 C248.0469,184.0781 247.8906,184.3594 247.8906,184.6563 C247.8906,185.2188 248.2656,185.5 249.0156,185.5 L251.2813,185.5 C251.6406,185.5 251.8594,185.4688 251.9844,185.375 C252.25,185.2344 252.3906,184.9375 252.3906,184.6563 C252.3906,184.375 252.2656,184.125 252.0469,183.9531 C251.875,183.8281 251.7344,183.7969 251.2813,183.7969 L250.8906,183.7969 L251.2813,182.8125 L255.3281,182.8125 Z M254.625,181.1094 L251.9531,181.1094 L253.2969,177.8438 L254.625,181.1094 Z " fill="#000000"/><text fill="#000000" font-family="sans-serif" font-size="14" font-style="italic" lengthAdjust="spacing" textLength="71" x="273.75" y="185.8467">Operation</text><line style="stroke:#181818;stroke-width:0.5;" x1="179.5" x2="406.5" y1="197" y2="197"/><line style="stroke:#181818;stroke-width:0.5;" x1="179.5" x2="406.5" y1="205" y2="205"/><ellipse cx="189.5" cy="216" fill="#84BE84" rx="3" ry="3" style="stroke:#038048;stroke-width:1.0;"/><text fill="#000000" font-family="sans-serif" font-size="14" font-style="italic" lengthAdjust="spacing" textLength="103" x="198.5" y="221.9951">obtainValues()</text><ellipse cx="189.5" cy="232.2969" fill="#84BE84" rx="3" ry="3" style="stroke:#038048;stroke-width:1.0;"/><text fill="#000000" font-family="sans-serif" font-size="14" font-style="italic" lengthAdjust="spacing" textLength="138" x="198.5" y="238.292">executeOperation()</text><ellipse cx="189.5" cy="248.5938" fill="#84BE84" rx="3" ry="3" style="stroke:#038048;stroke-width:1.0;"/><text fill="#000000" font-family="sans-serif" font-size="14" font-style="italic" lengthAdjust="spacing" textLength="87" x="198.5" y="254.5889">printResult()</text><ellipse cx="189.5" cy="264.8906" fill="#84BE84" rx="3" ry="3" style="stroke:#038048;stroke-width:1.0;"/><text fill="#000000" font-family="sans-serif" font-size="14" font-style="italic" lengthAdjust="spacing" textLength="203" x="198.5" y="270.8857">setSolver(MathSolver solver)</text></g><!--MD5=[511f9194fc38372f1f6fc8c107ba4f2b]
class MathSolver--><g id="elem_MathSolver"><rect codeLine="21" fill="#F1F1F1" height="48" id="MathSolver" rx="2.5" ry="2.5" style="stroke:#181818;stroke-width:0.5;" width="112" x="202" y="635"/><ellipse cx="217" cy="651" fill="#B4A7E5" rx="11" ry="11" style="stroke:#181818;stroke-width:1.0;"/><path d="M217.9531,647.7813 L219.6719,647.7813 C220.0625,647.7813 220.25,647.75 220.375,647.6719 C220.6406,647.5156 220.7813,647.2344 220.7813,646.9375 C220.7813,646.6719 220.6719,646.4063 220.4375,646.2344 C220.2656,646.125 220.125,646.0938 219.6719,646.0938 L214.5313,646.0938 C214.0938,646.0938 213.9688,646.1094 213.8125,646.2031 C213.5625,646.3594 213.4063,646.6563 213.4063,646.9375 C213.4063,647.2188 213.5469,647.4688 213.7656,647.6406 C213.9219,647.75 214.1094,647.7813 214.5313,647.7813 L216.25,647.7813 L216.25,654.2969 L214.5313,654.2969 C214.0938,654.2969 213.9688,654.3125 213.8125,654.4219 C213.5625,654.5781 213.4063,654.8594 213.4063,655.1563 C213.4063,655.4063 213.5469,655.6719 213.7656,655.8281 C213.9219,655.9531 214.125,656 214.5313,656 L219.6719,656 C220.4219,656 220.7813,655.7188 220.7813,655.1563 C220.7813,654.875 220.6719,654.625 220.4375,654.4531 C220.2656,654.3281 220.125,654.2969 219.6719,654.2969 L217.9531,654.2969 L217.9531,647.7813 Z " fill="#000000"/><text fill="#000000" font-family="sans-serif" font-size="14" font-style="italic" lengthAdjust="spacing" textLength="80" x="231" y="655.8467">MathSolver</text><line style="stroke:#181818;stroke-width:0.5;" x1="203" x2="313" y1="667" y2="667"/><line style="stroke:#181818;stroke-width:0.5;" x1="203" x2="313" y1="675" y2="675"/></g><!--MD5=[26c66bec7cad6fbfb4e1fbb90d134706]
class Adder--><g id="elem_Adder"><rect codeLine="26" fill="#F1F1F1" height="64.2969" id="Adder" rx="2.5" ry="2.5" style="stroke:#181818;stroke-width:0.5;" width="134" x="215" y="511"/><ellipse cx="256.55" cy="527" fill="#B4A7E5" rx="11" ry="11" style="stroke:#181818;stroke-width:1.0;"/><path d="M257.5031,523.7813 L259.2219,523.7813 C259.6125,523.7813 259.8,523.75 259.925,523.6719 C260.1906,523.5156 260.3313,523.2344 260.3313,522.9375 C260.3313,522.6719 260.2219,522.4063 259.9875,522.2344 C259.8156,522.125 259.675,522.0938 259.2219,522.0938 L254.0813,522.0938 C253.6438,522.0938 253.5188,522.1094 253.3625,522.2031 C253.1125,522.3594 252.9563,522.6563 252.9563,522.9375 C252.9563,523.2188 253.0969,523.4688 253.3156,523.6406 C253.4719,523.75 253.6594,523.7813 254.0813,523.7813 L255.8,523.7813 L255.8,530.2969 L254.0813,530.2969 C253.6438,530.2969 253.5188,530.3125 253.3625,530.4219 C253.1125,530.5781 252.9563,530.8594 252.9563,531.1563 C252.9563,531.4063 253.0969,531.6719 253.3156,531.8281 C253.4719,531.9531 253.675,532 254.0813,532 L259.2219,532 C259.9719,532 260.3313,531.7188 260.3313,531.1563 C260.3313,530.875 260.2219,530.625 259.9875,530.4531 C259.8156,530.3281 259.675,530.2969 259.2219,530.2969 L257.5031,530.2969 L257.5031,523.7813 Z " fill="#000000"/><text fill="#000000" font-family="sans-serif" font-size="14" font-style="italic" lengthAdjust="spacing" textLength="43" x="276.45" y="531.8467">Adder</text><line style="stroke:#181818;stroke-width:0.5;" x1="216" x2="348" y1="543" y2="543"/><line style="stroke:#181818;stroke-width:0.5;" x1="216" x2="348" y1="551" y2="551"/><ellipse cx="226" cy="562" fill="#84BE84" rx="3" ry="3" style="stroke:#038048;stroke-width:1.0;"/><text fill="#000000" font-family="sans-serif" font-size="14" lengthAdjust="spacing" textLength="108" x="235" y="567.9951">getIntAdd():int</text></g><!--MD5=[bbc84d1aa0e7f30bd67b3f6e81f0f299]
class Sum--><g id="elem_Sum"><rect codeLine="30" fill="#F1F1F1" height="113.1875" id="Sum" rx="2.5" ry="2.5" style="stroke:#181818;stroke-width:0.5;" width="114" x="235" y="338"/><ellipse cx="272.95" cy="354" fill="#ADD1B2" rx="11" ry="11" style="stroke:#181818;stroke-width:1.0;"/><path d="M275.2938,349.6719 C274.3563,349.2344 273.7625,349.0938 272.8875,349.0938 C270.2625,349.0938 268.2625,351.1719 268.2625,353.8906 L268.2625,355.0156 C268.2625,357.5938 270.3719,359.4844 273.2625,359.4844 C274.4813,359.4844 275.6375,359.1875 276.3875,358.6406 C276.9656,358.2344 277.2938,357.7813 277.2938,357.3906 C277.2938,356.9375 276.9031,356.5469 276.4344,356.5469 C276.2156,356.5469 276.0125,356.625 275.825,356.8125 C275.3719,357.2969 275.3719,357.2969 275.1844,357.3906 C274.7625,357.6563 274.075,357.7813 273.3094,357.7813 C271.2625,357.7813 269.9656,356.6875 269.9656,354.9844 L269.9656,353.8906 C269.9656,352.1094 271.2156,350.7969 272.95,350.7969 C273.5281,350.7969 274.1375,350.9531 274.6063,351.2031 C275.0906,351.4844 275.2625,351.7031 275.3563,352.1094 C275.4188,352.5156 275.45,352.6406 275.5906,352.7656 C275.7313,352.9063 275.9656,353.0156 276.1844,353.0156 C276.45,353.0156 276.7156,352.875 276.8875,352.6563 C276.9969,352.5 277.0281,352.3125 277.0281,351.8906 L277.0281,350.4688 C277.0281,350.0313 277.0125,349.9063 276.9188,349.75 C276.7625,349.4844 276.4813,349.3438 276.1844,349.3438 C275.8875,349.3438 275.6844,349.4375 275.4656,349.75 L275.2938,349.6719 Z " fill="#000000"/><text fill="#000000" font-family="sans-serif" font-size="14" lengthAdjust="spacing" textLength="31" x="292.05" y="358.8467">Sum</text><line style="stroke:#181818;stroke-width:0.5;" x1="236" x2="348" y1="370" y2="370"/><rect fill="none" height="6" style="stroke:#C82930;stroke-width:1.0;" width="6" x="243" y="378"/><text fill="#000000" font-family="sans-serif" font-size="14" lengthAdjust="spacing" textLength="88" x="255" y="386.9951">Adder adder</text><rect fill="none" height="6" style="stroke:#C82930;stroke-width:1.0;" width="6" x="243" y="394.2969"/><text fill="#000000" font-family="sans-serif" font-size="14" lengthAdjust="spacing" textLength="70" x="255" y="403.292">int value1</text><rect fill="none" height="6" style="stroke:#C82930;stroke-width:1.0;" width="6" x="243" y="410.5938"/><text fill="#000000" font-family="sans-serif" font-size="14" lengthAdjust="spacing" textLength="69" x="255" y="419.5889">int value2</text><rect fill="none" height="6" style="stroke:#C82930;stroke-width:1.0;" width="6" x="243" y="426.8906"/><text fill="#000000" font-family="sans-serif" font-size="14" lengthAdjust="spacing" textLength="65" x="255" y="435.8857">int result</text><line style="stroke:#181818;stroke-width:0.5;" x1="236" x2="348" y1="443.1875" y2="443.1875"/></g><!--MD5=[2323513e2cf470920cf67ea86729817f]
class Substractor--><g id="elem_Substractor"><rect codeLine="41" fill="#F1F1F1" height="64.2969" id="Substractor" rx="2.5" ry="2.5" style="stroke:#181818;stroke-width:0.5;" width="176" x="405" y="511"/><ellipse cx="447.9" cy="527" fill="#B4A7E5" rx="11" ry="11" style="stroke:#181818;stroke-width:1.0;"/><path d="M448.8531,523.7813 L450.5719,523.7813 C450.9625,523.7813 451.15,523.75 451.275,523.6719 C451.5406,523.5156 451.6813,523.2344 451.6813,522.9375 C451.6813,522.6719 451.5719,522.4063 451.3375,522.2344 C451.1656,522.125 451.025,522.0938 450.5719,522.0938 L445.4313,522.0938 C444.9938,522.0938 444.8688,522.1094 444.7125,522.2031 C444.4625,522.3594 444.3063,522.6563 444.3063,522.9375 C444.3063,523.2188 444.4469,523.4688 444.6656,523.6406 C444.8219,523.75 445.0094,523.7813 445.4313,523.7813 L447.15,523.7813 L447.15,530.2969 L445.4313,530.2969 C444.9938,530.2969 444.8688,530.3125 444.7125,530.4219 C444.4625,530.5781 444.3063,530.8594 444.3063,531.1563 C444.3063,531.4063 444.4469,531.6719 444.6656,531.8281 C444.8219,531.9531 445.025,532 445.4313,532 L450.5719,532 C451.3219,532 451.6813,531.7188 451.6813,531.1563 C451.6813,530.875 451.5719,530.625 451.3375,530.4531 C451.1656,530.3281 451.025,530.2969 450.5719,530.2969 L448.8531,530.2969 L448.8531,523.7813 Z " fill="#000000"/><text fill="#000000" font-family="sans-serif" font-size="14" font-style="italic" lengthAdjust="spacing" textLength="82" x="468.1" y="531.8467">Substractor</text><line style="stroke:#181818;stroke-width:0.5;" x1="406" x2="580" y1="543" y2="543"/><line style="stroke:#181818;stroke-width:0.5;" x1="406" x2="580" y1="551" y2="551"/><ellipse cx="416" cy="562" fill="#84BE84" rx="3" ry="3" style="stroke:#038048;stroke-width:1.0;"/><text fill="#000000" font-family="sans-serif" font-size="14" lengthAdjust="spacing" textLength="150" x="425" y="567.9951">getIntSubstract():int</text></g><!--MD5=[43d804ab946cf83ef4b2bb28a3b56fdb]
class Substract--><g id="elem_Substract"><rect codeLine="45" fill="#F1F1F1" height="113.1875" id="Substract" rx="2.5" ry="2.5" style="stroke:#181818;stroke-width:0.5;" width="114" x="424" y="338"/><ellipse cx="444.4" cy="354" fill="#ADD1B2" rx="11" ry="11" style="stroke:#181818;stroke-width:1.0;"/><path d="M446.7438,349.6719 C445.8063,349.2344 445.2125,349.0938 444.3375,349.0938 C441.7125,349.0938 439.7125,351.1719 439.7125,353.8906 L439.7125,355.0156 C439.7125,357.5938 441.8219,359.4844 444.7125,359.4844 C445.9313,359.4844 447.0875,359.1875 447.8375,358.6406 C448.4156,358.2344 448.7438,357.7813 448.7438,357.3906 C448.7438,356.9375 448.3531,356.5469 447.8844,356.5469 C447.6656,356.5469 447.4625,356.625 447.275,356.8125 C446.8219,357.2969 446.8219,357.2969 446.6344,357.3906 C446.2125,357.6563 445.525,357.7813 444.7594,357.7813 C442.7125,357.7813 441.4156,356.6875 441.4156,354.9844 L441.4156,353.8906 C441.4156,352.1094 442.6656,350.7969 444.4,350.7969 C444.9781,350.7969 445.5875,350.9531 446.0563,351.2031 C446.5406,351.4844 446.7125,351.7031 446.8063,352.1094 C446.8688,352.5156 446.9,352.6406 447.0406,352.7656 C447.1813,352.9063 447.4156,353.0156 447.6344,353.0156 C447.9,353.0156 448.1656,352.875 448.3375,352.6563 C448.4469,352.5 448.4781,352.3125 448.4781,351.8906 L448.4781,350.4688 C448.4781,350.0313 448.4625,349.9063 448.3688,349.75 C448.2125,349.4844 447.9313,349.3438 447.6344,349.3438 C447.3375,349.3438 447.1344,349.4375 446.9156,349.75 L446.7438,349.6719 Z " fill="#000000"/><text fill="#000000" font-family="sans-serif" font-size="14" lengthAdjust="spacing" textLength="70" x="459.6" y="358.8467">Substract</text><line style="stroke:#181818;stroke-width:0.5;" x1="425" x2="537" y1="370" y2="370"/><rect fill="none" height="6" style="stroke:#C82930;stroke-width:1.0;" width="6" x="432" y="378"/><text fill="#000000" font-family="sans-serif" font-size="14" lengthAdjust="spacing" textLength="88" x="444" y="386.9951">Adder adder</text><rect fill="none" height="6" style="stroke:#C82930;stroke-width:1.0;" width="6" x="432" y="394.2969"/><text fill="#000000" font-family="sans-serif" font-size="14" lengthAdjust="spacing" textLength="70" x="444" y="403.292">int value1</text><rect fill="none" height="6" style="stroke:#C82930;stroke-width:1.0;" width="6" x="432" y="410.5938"/><text fill="#000000" font-family="sans-serif" font-size="14" lengthAdjust="spacing" textLength="69" x="444" y="419.5889">int value2</text><rect fill="none" height="6" style="stroke:#C82930;stroke-width:1.0;" width="6" x="432" y="426.8906"/><text fill="#000000" font-family="sans-serif" font-size="14" lengthAdjust="spacing" textLength="65" x="444" y="435.8857">int result</text><line style="stroke:#181818;stroke-width:0.5;" x1="425" x2="537" y1="443.1875" y2="443.1875"/></g><!--MD5=[c11f74f49ac87da4ebbc096654045039]
reverse link Sum to Adder--><g id="link_Sum_Adder"><path codeLine="37" d="M287.305,464.285 C286.189,480.628 285.053,497.27 284.12,510.938 " fill="none" id="Sum-backto-Adder" style="stroke:#181818;stroke-width:1.0;"/><polygon fill="#181818" points="288.191,451.303,283.7915,457.0165,287.3734,463.2751,291.7729,457.5616,288.191,451.303" style="stroke:#181818;stroke-width:1.0;"/></g><!--MD5=[c4cd6344fee46d586dd77626c2c04109]
reverse link Substract to Substractor--><g id="link_Substract_Substractor"><path codeLine="52" d="M486.634,464.285 C487.973,480.628 489.336,497.27 490.456,510.938 " fill="none" id="Substract-backto-Substractor" style="stroke:#181818;stroke-width:1.0;"/><polygon fill="#181818" points="485.571,451.303,482.0742,457.6095,486.5507,463.2629,490.0475,456.9564,485.571,451.303" style="stroke:#181818;stroke-width:1.0;"/></g><!--MD5=[f4ccdd7c5cb9f85a2b83c51994b1bbf8]
reverse link Operation to Sum--><g id="link_Operation_Sum"><path codeLine="55" d="M292.556,298.463 C292.478,311.755 292.398,325.359 292.325,337.967 " fill="none" id="Operation-backto-Sum" style="stroke:#181818;stroke-width:1.0;"/><polygon fill="none" points="285.558,297.977,292.675,278.019,299.558,298.059,285.558,297.977" style="stroke:#181818;stroke-width:1.0;"/></g><!--MD5=[c2be4d31f8a36c7179c60248663c83bf]
reverse link Operation to Substract--><g id="link_Operation_Substract"><path codeLine="56" d="M369.091,291.71 C387.348,308.317 406.542,325.775 423.777,341.452 " fill="none" id="Operation-backto-Substract" style="stroke:#181818;stroke-width:1.0;"/><polygon fill="none" points="364.123,296.655,354.038,278.019,373.544,286.298,364.123,296.655" style="stroke:#181818;stroke-width:1.0;"/></g><!--MD5=[d47207c20c81c2e222eb5d4c65219f71]
link Operation to MathSolver--><g id="link_Operation_MathSolver"><path codeLine="57" d="M209.722,278.291 C205.561,283.51 201.91,289.081 199,295 C139.392,416.252 147.295,474.174 199,599 C203.996,611.062 212.787,621.943 222.081,630.98 " fill="none" id="Operation-to-MathSolver" style="stroke:#181818;stroke-width:1.0;stroke-dasharray:7.0,7.0;"/><polygon fill="#181818" points="226.086,634.739,222.2625,625.6626,222.4408,631.3166,216.7868,631.4949,226.086,634.739" style="stroke:#181818;stroke-width:1.0;"/></g><!--MD5=[2f200235bd3853aa7bd8ca16c389b65e]
link Player to MathSolver--><g id="link_Player_MathSolver"><path codeLine="60" d="M82.6673,245.728 C80.2318,308.741 81.3489,485.77 161,599 C167.674,608.488 176.406,616.731 185.897,623.801 " fill="none" id="Player-to-MathSolver" style="stroke:#181818;stroke-width:1.0;stroke-dasharray:7.0,7.0;"/><polygon fill="none" points="190.021,618.134,202.931,634.937,182.36,629.852,190.021,618.134" style="stroke:#181818;stroke-width:1.0;"/></g><!--MD5=[db6eb71451662b5ce3ed496af0ce6517]
reverse link Substractor to MathSolver--><g id="link_Substractor_MathSolver"><path codeLine="62" d="M410.653,583.947 C375.46,601.019 335.633,620.34 305.486,634.964 " fill="none" id="Substractor-backto-MathSolver" style="stroke:#181818;stroke-width:1.0;stroke-dasharray:7.0,7.0;"/><polygon fill="none" points="408.046,577.432,429.096,575,414.156,590.028,408.046,577.432" style="stroke:#181818;stroke-width:1.0;"/></g><!--MD5=[6f38b8e7502fd4796f7ce6ba650a1c2b]
reverse link Adder to MathSolver--><g id="link_Adder_MathSolver"><path codeLine="63" d="M271.293,594.86 C268.352,608.826 265.307,623.29 262.875,634.845 " fill="none" id="Adder-backto-MathSolver" style="stroke:#181818;stroke-width:1.0;stroke-dasharray:7.0,7.0;"/><polygon fill="none" points="264.472,593.28,275.442,575.151,278.171,596.164,264.472,593.28" style="stroke:#181818;stroke-width:1.0;"/></g><!--MD5=[7f4e4a140ac162ee36a2205ebfe92f1a]
link ExampleInterface to Operation--><g id="link_ExampleInterface_Operation"><path codeLine="65" d="M352.094,105.069 C343.889,121.097 333.591,141.212 323.9,160.142 " fill="none" id="ExampleInterface-to-Operation" style="stroke:#181818;stroke-width:1.0;"/><polygon fill="#181818" points="321.451,164.925,329.1133,158.7372,323.7298,160.4745,321.9925,155.091,321.451,164.925" style="stroke:#181818;stroke-width:1.0;"/></g><!--MD5=[74418cb3db69641069e35c383ca273aa]
link ExampleInterface to Sum--><g id="link_ExampleInterface_Sum"><path codeLine="66" d="M425.814,105.078 C431.061,110.062 435.65,115.692 439,122 C471.517,183.235 479.371,221.633 439,278 C425.333,297.082 408.881,282.524 389,295 C371.945,305.702 355.652,319.967 341.452,334.312 " fill="none" id="ExampleInterface-to-Sum" style="stroke:#181818;stroke-width:1.0;"/><polygon fill="#181818" points="337.888,337.958,347.0405,334.3205,341.384,334.3834,341.3212,328.7269,337.888,337.958" style="stroke:#181818;stroke-width:1.0;"/></g><!--MD5=[5332031f8ef6ea68f0883bf63efe32d0]
link ExampleInterface to Substract--><g id="link_ExampleInterface_Substract"><path codeLine="67" d="M446.34,105.09 C452.373,109.976 457.755,115.581 462,122 C503.301,184.456 500.751,273.622 492.813,332.499 " fill="none" id="ExampleInterface-to-Substract" style="stroke:#181818;stroke-width:1.0;"/><polygon fill="#181818" points="492.08,337.746,497.2859,329.3855,492.7713,332.794,489.3628,328.2794,492.08,337.746" style="stroke:#181818;stroke-width:1.0;"/></g><!--MD5=[b780cf56e226a50cb192bd0ff9d6cc94]
link ExampleInterface to Player--><g id="link_ExampleInterface_Player"><path codeLine="68" d="M210.495,98.88 C193.434,104.977 176.887,112.563 162,122 C134.365,139.518 112.336,170.324 98.83,192.832 " fill="none" id="ExampleInterface-to-Player" style="stroke:#181818;stroke-width:1.0;"/><polygon fill="#181818" points="96.244,197.217,104.2626,191.4985,98.7849,192.9107,97.3726,187.433,96.244,197.217" style="stroke:#181818;stroke-width:1.0;"/></g><!--MD5=[9d680889ac1568f0224058c46cfd24a2]
@startuml
package exampleinterface{

    class ExampleInterface{
        +executeOperation(Operation operation)
    }

    package player{
        class Player{

        }
    }

    package mathoperations{
        abstract Operation{
            +{abstract}obtainValues()
            +{abstract}executeOperation()
            +{abstract}printResult()
            +{abstract}setSolver(MathSolver solver)
        }

        interface MathSolver{

        }

        package sum{
            interface Adder{
                +getIntAdd():int
            }

            class Sum{
                -Adder adder
                -int value1
                -int value2
                -int result
            }
            
            Sum *- - Adder
        }

        package substract{
            interface Substractor{
                +getIntSubstract():int
            }

            class Substract{
                -Adder adder
                -int value1
                -int value2
                -int result
            }
            
            Substract *- - Substractor
        }

        Sum -up-|> Operation
        Substract -up-|> Operation
        Operation ..> MathSolver
    }

    Player ..|> MathSolver

    MathSolver .up.|> Substractor
    MathSolver .up.|> Adder

    ExampleInterface - -> Operation
    ExampleInterface - -> Sum
    ExampleInterface - -> Substract
    ExampleInterface - -> Player
}
@enduml

PlantUML version 1.2022.7beta2(Unknown compile time)
(GPL source distribution)
Java Runtime: Java(TM) SE Runtime Environment
JVM: Java HotSpot(TM) 64-Bit Server VM
Default Encoding: UTF-8
Language: en
Country: US
--></g></svg>