<?xml version="1.0" encoding="UTF-8" standalone="no"?><svg xmlns="http://www.w3.org/2000/svg" xmlns:xlink="http://www.w3.org/1999/xlink" contentStyleType="text/css" height="721px" preserveAspectRatio="none" style="width:1287px;height:721px;background:#FFFFFF;" version="1.1" viewBox="0 0 1287 721" width="1287px" zoomAndPan="magnify"><defs/><g><g id="elem_HangMan"><rect fill="#F1F1F1" height="36.2969" style="stroke:#181818;stroke-width:0.5;" width="79" x="769.5" y="7"/><text fill="#000000" font-family="sans-serif" font-size="14" lengthAdjust="spacing" textLength="65" x="776.5" y="21.9951">HangMan</text><line style="stroke:#181818;stroke-width:0.5;" x1="770.5" x2="847.5" y1="27.2969" y2="27.2969"/></g><g id="elem_SelectPlayers"><rect fill="#F1F1F1" height="36.2969" style="stroke:#181818;stroke-width:0.5;" width="111" x="584.5" y="103"/><text fill="#000000" font-family="sans-serif" font-size="14" lengthAdjust="spacing" textLength="97" x="591.5" y="117.9951">SelectPlayers</text><line style="stroke:#181818;stroke-width:0.5;" x1="585.5" x2="694.5" y1="123.2969" y2="123.2969"/></g><g id="elem_Round"><rect fill="#F1F1F1" height="36.2969" style="stroke:#181818;stroke-width:0.5;" width="59" x="779.5" y="103"/><text fill="#000000" font-family="sans-serif" font-size="14" lengthAdjust="spacing" textLength="45" x="786.5" y="117.9951">Round</text><line style="stroke:#181818;stroke-width:0.5;" x1="780.5" x2="837.5" y1="123.2969" y2="123.2969"/></g><g id="elem_Turn"><rect fill="#F1F1F1" height="36.2969" style="stroke:#181818;stroke-width:0.5;" width="46" x="717" y="199"/><text fill="#000000" font-family="sans-serif" font-size="14" lengthAdjust="spacing" textLength="32" x="724" y="213.9951">Turn</text><line style="stroke:#181818;stroke-width:0.5;" x1="718" x2="762" y1="219.2969" y2="219.2969"/></g><g id="elem_HangedMan"><rect fill="#F1F1F1" height="36.2969" style="stroke:#181818;stroke-width:0.5;" width="97" x="681.5" y="295"/><text fill="#000000" font-family="sans-serif" font-size="14" lengthAdjust="spacing" textLength="83" x="688.5" y="309.9951">HangedMan</text><line style="stroke:#181818;stroke-width:0.5;" x1="682.5" x2="777.5" y1="315.2969" y2="315.2969"/></g><g id="elem_SecretWord"><rect fill="#F1F1F1" height="36.2969" style="stroke:#181818;stroke-width:0.5;" width="100" x="671" y="391"/><text fill="#000000" font-family="sans-serif" font-size="14" lengthAdjust="spacing" textLength="86" x="678" y="405.9951">SecretWord</text><line style="stroke:#181818;stroke-width:0.5;" x1="672" x2="770" y1="411.2969" y2="411.2969"/></g><g id="elem_Player"><rect fill="#F1F1F1" height="36.2969" style="stroke:#181818;stroke-width:0.5;" width="58" x="212" y="295"/><text fill="#000000" font-family="sans-serif" font-size="14" lengthAdjust="spacing" textLength="44" x="219" y="309.9951">Player</text><line style="stroke:#181818;stroke-width:0.5;" x1="213" x2="269" y1="315.2969" y2="315.2969"/></g><g id="elem_WordGuesserable"><rect fill="#F1F1F1" height="36.2969" style="stroke:#181818;stroke-width:0.5;" width="140" x="462" y="295"/><text fill="#000000" font-family="sans-serif" font-size="14" lengthAdjust="spacing" textLength="126" x="469" y="309.9951">WordGuesserable</text><line style="stroke:#181818;stroke-width:0.5;" x1="463" x2="601" y1="315.2969" y2="315.2969"/></g><g id="elem_WordGiverable"><rect fill="#F1F1F1" height="36.2969" style="stroke:#181818;stroke-width:0.5;" width="121" x="305.5" y="295"/><text fill="#000000" font-family="sans-serif" font-size="14" lengthAdjust="spacing" textLength="107" x="312.5" y="309.9951">WordGiverable</text><line style="stroke:#181818;stroke-width:0.5;" x1="306.5" x2="425.5" y1="315.2969" y2="315.2969"/></g><g id="elem_GiveWord"><rect fill="#F1F1F1" height="36.2969" style="stroke:#181818;stroke-width:0.5;" width="84" x="7" y="391"/><text fill="#000000" font-family="sans-serif" font-size="14" lengthAdjust="spacing" textLength="70" x="14" y="405.9951">GiveWord</text><line style="stroke:#181818;stroke-width:0.5;" x1="8" x2="90" y1="411.2969" y2="411.2969"/></g><g id="elem_GuessWord"><rect fill="#F1F1F1" height="36.2969" style="stroke:#181818;stroke-width:0.5;" width="94" x="285" y="391"/><text fill="#000000" font-family="sans-serif" font-size="14" lengthAdjust="spacing" textLength="80" x="292" y="405.9951">GuessWord</text><line style="stroke:#181818;stroke-width:0.5;" x1="286" x2="378" y1="411.2969" y2="411.2969"/></g><g id="elem_TryLetter"><rect fill="#F1F1F1" height="36.2969" style="stroke:#181818;stroke-width:0.5;" width="83" x="414.5" y="391"/><text fill="#000000" font-family="sans-serif" font-size="14" lengthAdjust="spacing" textLength="69" x="421.5" y="405.9951">TryLetter</text><line style="stroke:#181818;stroke-width:0.5;" x1="415.5" x2="496.5" y1="411.2969" y2="411.2969"/></g><g id="elem_AssignRoles"><rect fill="#F1F1F1" height="36.2969" style="stroke:#181818;stroke-width:0.5;" width="99" x="467.5" y="199"/><text fill="#000000" font-family="sans-serif" font-size="14" lengthAdjust="spacing" textLength="85" x="474.5" y="213.9951">AssignRoles</text><line style="stroke:#181818;stroke-width:0.5;" x1="468.5" x2="565.5" y1="219.2969" y2="219.2969"/></g><g id="elem_StatisticsTempo"><rect fill="#F1F1F1" height="36.2969" style="stroke:#181818;stroke-width:0.5;" width="133" x="885.5" y="295"/><text fill="#000000" font-family="sans-serif" font-size="14" lengthAdjust="spacing" textLength="119" x="892.5" y="309.9951">StatisticsTempo</text><line style="stroke:#181818;stroke-width:0.5;" x1="886.5" x2="1017.5" y1="315.2969" y2="315.2969"/></g><g id="elem_GuessingAttempts"><rect fill="#F1F1F1" height="36.2969" style="stroke:#181818;stroke-width:0.5;" width="149" x="1132.5" y="391"/><text fill="#000000" font-family="sans-serif" font-size="14" lengthAdjust="spacing" textLength="135" x="1139.5" y="405.9951">GuessingAttempts</text><line style="stroke:#181818;stroke-width:0.5;" x1="1133.5" x2="1280.5" y1="411.2969" y2="411.2969"/></g><g id="elem_AskForAHint"><rect fill="#F1F1F1" height="36.2969" style="stroke:#181818;stroke-width:0.5;" width="103" x="532.5" y="391"/><text fill="#000000" font-family="sans-serif" font-size="14" lengthAdjust="spacing" textLength="89" x="539.5" y="405.9951">AskForAHint</text><line style="stroke:#181818;stroke-width:0.5;" x1="533.5" x2="634.5" y1="411.2969" y2="411.2969"/></g><g id="elem_RemainingAttempts"><rect fill="#F1F1F1" height="36.2969" style="stroke:#181818;stroke-width:0.5;" width="161" x="806.5" y="391"/><text fill="#000000" font-family="sans-serif" font-size="14" lengthAdjust="spacing" textLength="147" x="813.5" y="405.9951">RemainingAttempts</text><line style="stroke:#181818;stroke-width:0.5;" x1="807.5" x2="966.5" y1="411.2969" y2="411.2969"/></g><g id="elem_GuiveAHint"><rect fill="#F1F1F1" height="36.2969" style="stroke:#181818;stroke-width:0.5;" width="94" x="1003" y="391"/><text fill="#000000" font-family="sans-serif" font-size="14" lengthAdjust="spacing" textLength="80" x="1010" y="405.9951">GuiveAHint</text><line style="stroke:#181818;stroke-width:0.5;" x1="1004" x2="1096" y1="411.2969" y2="411.2969"/></g><g id="elem_HangManPlayer"><rect fill="#F1F1F1" height="36.2969" style="stroke:#181818;stroke-width:0.5;" width="123" x="126.5" y="391"/><text fill="#000000" font-family="sans-serif" font-size="14" lengthAdjust="spacing" textLength="109" x="133.5" y="405.9951">HangManPlayer</text><line style="stroke:#181818;stroke-width:0.5;" x1="127.5" x2="248.5" y1="411.2969" y2="411.2969"/></g><g id="elem_ListCharacters"><rect fill="#F1F1F1" height="36.2969" style="stroke:#181818;stroke-width:0.5;" width="118" x="662" y="487"/><text fill="#000000" font-family="sans-serif" font-size="14" lengthAdjust="spacing" textLength="104" x="669" y="501.9951">ListCharacters</text><line style="stroke:#181818;stroke-width:0.5;" x1="663" x2="779" y1="507.2969" y2="507.2969"/></g><g id="elem_Character"><rect fill="#F1F1F1" height="36.2969" style="stroke:#181818;stroke-width:0.5;" width="85" x="678.5" y="583"/><text fill="#000000" font-family="sans-serif" font-size="14" lengthAdjust="spacing" textLength="71" x="685.5" y="597.9951">Character</text><line style="stroke:#181818;stroke-width:0.5;" x1="679.5" x2="762.5" y1="603.2969" y2="603.2969"/></g><g id="elem_Hidden"><rect fill="#F1F1F1" height="36.2969" style="stroke:#181818;stroke-width:0.5;" width="64" x="689" y="679"/><text fill="#000000" font-family="sans-serif" font-size="14" lengthAdjust="spacing" textLength="50" x="696" y="693.9951">Hidden</text><line style="stroke:#181818;stroke-width:0.5;" x1="690" x2="752" y1="699.2969" y2="699.2969"/></g><!--MD5=[3a2cbed501427aa6566ae86d3ac9c03e]
reverse link HangMan to Round--><g id="link_HangMan_Round"><path codeLine="24" d="M809,56.387 C809,71.785 809,89.912 809,102.868 " fill="none" id="HangMan-backto-Round" style="stroke:#181818;stroke-width:1.0;"/><polygon fill="#181818" points="809,43.241,805,49.241,809,55.241,813,49.241,809,43.241" style="stroke:#181818;stroke-width:1.0;"/><text fill="#000000" font-family="sans-serif" font-size="13" lengthAdjust="spacing" textLength="8" x="799.775" y="92.06">2</text></g><!--MD5=[8cba39d171047dcf9a2eb01d9a79be57]
link HangMan to SelectPlayers--><g id="link_HangMan_SelectPlayers"><path codeLine="25" d="M778.395,43.023 C749.293,59.21 705.553,83.538 675.061,100.498 " fill="none" id="HangMan-to-SelectPlayers" style="stroke:#181818;stroke-width:1.0;stroke-dasharray:7.0,7.0;"/><polygon fill="#181818" points="670.662,102.945,680.4715,102.0657,675.0315,100.5145,676.5827,95.0745,670.662,102.945" style="stroke:#181818;stroke-width:1.0;"/><text fill="#000000" font-family="sans-serif" font-size="13" lengthAdjust="spacing" textLength="8" x="671.1605" y="91.8401">2</text></g><!--MD5=[e224864b4045084b01f32ddf1f7e7cbf]
link HangMan to Player--><g id="link_HangMan_Player"><path codeLine="26" d="M757.6987,38.8242 C757.6987,38.8242 498.242,115.455 372,199 C333.035,224.786 293.052,260.961 267.676,285.376 " fill="none" id="HangMan-Player" style="stroke:#181818;stroke-width:1.0;"/><polygon fill="#181818" points="258.06,294.74,267.2986,291.3269,261.6422,291.2518,261.7174,285.5954,258.06,294.74" style="stroke:#181818;stroke-width:1.0;"/><line style="stroke:#181818;stroke-width:1.0;" x1="261.6422" x2="267.3735" y1="291.2518" y2="285.671"/><polygon fill="#181818" points="769.298,35.749,762.4733,33.4202,757.6987,38.8242,764.5234,41.153,769.298,35.749" style="stroke:#181818;stroke-width:1.0;"/><text fill="#000000" font-family="sans-serif" font-size="13" lengthAdjust="spacing" textLength="8" x="254.0596" y="283.8928">2</text></g><!--MD5=[82637911c3446b2b8a69f0b75ce0d2cf]
reverse link HangMan to StatisticsTempo--><g id="link_HangMan_StatisticsTempo"><path codeLine="27" d="M827.328,54.228 C836.372,68.596 847.201,86.476 856,103 C892.972,172.431 929.891,258.769 944.944,294.877 " fill="none" id="HangMan-backto-StatisticsTempo" style="stroke:#181818;stroke-width:1.0;"/><polygon fill="#181818" points="820.233,43.093,820.0829,50.3025,826.6801,53.214,826.8302,46.0045,820.233,43.093" style="stroke:#181818;stroke-width:1.0;"/></g><!--MD5=[c8f72a68d66edb80cfb6fa63ed7c4248]
reverse link HangMan to GuessingAttempts--><g id="link_HangMan_GuessingAttempts"><path codeLine="28" d="M838.406,51.805 C891.809,98.95 1007.83,202.663 1101,295 C1134.24,327.945 1171.27,368.309 1191.57,390.786 " fill="none" id="HangMan-backto-GuessingAttempts" style="stroke:#181818;stroke-width:1.0;"/><polygon fill="#181818" points="828.585,43.151,830.442,50.1189,837.5881,51.0847,835.7311,44.1168,828.585,43.151" style="stroke:#181818;stroke-width:1.0;"/></g><!--MD5=[4abf9efa9e4ddf971d446d3c481ff258]
link Round to GuessingAttempts--><g id="link_Round_GuessingAttempts"><path codeLine="30" d="M832.705,139.034 C902.028,188.849 1104.19,334.123 1178.86,387.779 " fill="none" id="Round-to-GuessingAttempts" style="stroke:#181818;stroke-width:1.0;"/><polygon fill="#181818" points="1183.17,390.875,1178.1911,382.3773,1179.1081,387.9594,1173.5261,388.8764,1183.17,390.875" style="stroke:#181818;stroke-width:1.0;"/></g><!--MD5=[ddf22e9dd704d268a1bbdb997d24552f]
reverse link Round to Turn--><g id="link_Round_Turn"><path codeLine="31" d="M788.408,150.053 C776.76,165.921 762.571,185.251 752.575,198.868 " fill="none" id="Round-backto-Turn" style="stroke:#181818;stroke-width:1.0;"/><polygon fill="#181818" points="796.344,139.241,789.569,141.7108,789.2431,148.9145,796.0181,146.4447,796.344,139.241" style="stroke:#181818;stroke-width:1.0;"/><text fill="#000000" font-family="sans-serif" font-size="13" lengthAdjust="spacing" textLength="7" x="748.3542" y="188.06">*</text></g><!--MD5=[4cf98662372d1b309508978f3916dd84]
reverse link Round to AssignRoles--><g id="link_Round_AssignRoles"><path codeLine="32" d="M766.768,135.595 C713.723,152.671 622.855,181.923 566.571,200.042 " fill="none" id="Round-backto-AssignRoles" style="stroke:#181818;stroke-width:1.0;"/><polygon fill="#181818" points="779.395,131.531,772.458,129.5617,767.9721,135.2076,774.9091,137.1769,779.395,131.531" style="stroke:#181818;stroke-width:1.0;"/></g><!--MD5=[da4fd90784a4ca2942c7dd1dde4a049d]
link AssignRoles to Player--><g id="link_AssignRoles_Player"><path codeLine="33" d="M467.304,234.349 C420.844,249.719 349.582,273.513 288,295 C283.728,296.491 279.247,298.079 274.819,299.664 " fill="none" id="AssignRoles-to-Player" style="stroke:#181818;stroke-width:1.0;stroke-dasharray:7.0,7.0;"/><polygon fill="#181818" points="270.046,301.377,279.8683,302.0996,274.7517,299.687,277.1643,294.5704,270.046,301.377" style="stroke:#181818;stroke-width:1.0;"/></g><!--MD5=[fbcdf00d447ee586d31854d6d481b866]
link AssignRoles to WordGiverable--><g id="link_AssignRoles_WordGiverable"><path codeLine="34" d="M489.655,235.023 C463.759,251.143 424.891,275.339 397.663,292.29 " fill="none" id="AssignRoles-to-WordGiverable" style="stroke:#181818;stroke-width:1.0;stroke-dasharray:7.0,7.0;"/><polygon fill="#181818" points="393.396,294.945,403.1505,293.5847,397.6408,292.3027,398.9228,286.793,393.396,294.945" style="stroke:#181818;stroke-width:1.0;"/></g><!--MD5=[eb6ba87cd134f45531de1b07d1b0fbf2]
link AssignRoles to WordGuesserable--><g id="link_AssignRoles_WordGuesserable"><path codeLine="35" d="M519.751,235.241 C522.204,250.612 525.808,273.196 528.472,289.891 " fill="none" id="AssignRoles-to-WordGuesserable" style="stroke:#181818;stroke-width:1.0;stroke-dasharray:7.0,7.0;"/><polygon fill="#181818" points="529.266,294.868,531.7964,285.3498,528.4774,289.9306,523.8966,286.6115,529.266,294.868" style="stroke:#181818;stroke-width:1.0;"/></g><!--MD5=[185b10d4adb4e093d7c477f30354d06b]
link Round to StatisticsTempo--><g id="link_Round_StatisticsTempo"><path codeLine="36" d="M821.005,139.011 C836.791,161.269 865.514,201.395 891,235 C905.413,254.004 922.283,275.224 934.624,290.568 " fill="none" id="Round-to-StatisticsTempo" style="stroke:#181818;stroke-width:1.0;stroke-dasharray:7.0,7.0;"/><polygon fill="#181818" points="937.979,294.733,935.4479,285.2149,934.8423,290.8393,929.218,290.2336,937.979,294.733" style="stroke:#181818;stroke-width:1.0;"/></g><!--MD5=[c7236bf1a8c5e460566943fc215f1976]
link Turn to GuessingAttempts--><g id="link_Turn_GuessingAttempts"><path codeLine="38" d="M754.225,235.116 C776.032,260.182 820.245,306.544 868,331 C890.957,342.757 1034.41,373.145 1127.2,392.041 " fill="none" id="Turn-to-GuessingAttempts" style="stroke:#181818;stroke-width:1.0;stroke-dasharray:7.0,7.0;"/><polygon fill="#181818" points="1132.13,393.044,1124.1116,387.3251,1127.231,392.0442,1122.5119,395.1636,1132.13,393.044" style="stroke:#181818;stroke-width:1.0;"/></g><!--MD5=[aaca829d5d4ab0d25631ad6e837af178]
reverse link Turn to HangedMan--><g id="link_Turn_HangedMan"><path codeLine="39" d="M736.767,248.387 C735.129,263.785 733.201,281.912 731.823,294.868 " fill="none" id="Turn-backto-HangedMan" style="stroke:#181818;stroke-width:1.0;"/><polygon fill="#181818" points="738.166,235.241,733.5541,240.7845,736.8974,247.1738,741.5093,241.6302,738.166,235.241" style="stroke:#181818;stroke-width:1.0;"/></g><!--MD5=[bb6cf518ec958f6be128ea8576dec6c1]
reverse link Turn to WordGiverable--><g id="link_Turn_WordGiverable"><path codeLine="40" d="M703.957,227.059 C639.825,243.178 505.27,276.996 426.663,296.753 " fill="none" id="Turn-backto-WordGiverable" style="stroke:#181818;stroke-width:1.0;"/><polygon fill="#181818" points="716.887,223.809,710.093,221.392,705.2489,226.7337,712.0428,229.1507,716.887,223.809" style="stroke:#181818;stroke-width:1.0;"/></g><!--MD5=[e14e06c1c324bc1aed2ce737e7f59578]
reverse link Turn to WordGuesserable--><g id="link_Turn_WordGuesserable"><path codeLine="41" d="M704.668,233.967 C667.233,250.885 608.336,277.502 569.939,294.855 " fill="none" id="Turn-backto-WordGuesserable" style="stroke:#181818;stroke-width:1.0;"/><polygon fill="#181818" points="716.946,228.419,709.8311,227.245,706.0109,233.3611,713.1258,234.5351,716.946,228.419" style="stroke:#181818;stroke-width:1.0;"/></g><!--MD5=[bca53c455467159cf483103011a3f3b6]
link Turn to StatisticsTempo--><g id="link_Turn_StatisticsTempo"><path codeLine="42" d="M763.091,228.239 C797.985,243.71 864.747,273.313 908.828,292.858 " fill="none" id="Turn-to-StatisticsTempo" style="stroke:#181818;stroke-width:1.0;"/><polygon fill="#181818" points="913.554,294.953,906.9489,287.6473,908.9835,292.9256,903.7051,294.9601,913.554,294.953" style="stroke:#181818;stroke-width:1.0;"/></g><!--MD5=[f98af61de3e20c034776b2b61cb76ae7]
link SelectPlayers to Player--><g id="link_SelectPlayers_Player"><path codeLine="44" d="M593.702,139.115 C554.846,153.869 498.134,176.319 450,199 C386.637,228.857 315.373,268.825 274.571,292.352 " fill="none" id="SelectPlayers-to-Player" style="stroke:#181818;stroke-width:1.0;stroke-dasharray:7.0,7.0;"/><polygon fill="#181818" points="270.234,294.857,280.0282,293.821,274.5641,292.3569,276.0281,286.8928,270.234,294.857" style="stroke:#181818;stroke-width:1.0;"/></g><!--MD5=[3f4579434e29615a275561c9b7244845]
link WordGiverable to HangManPlayer--><g id="link_WordGiverable_HangManPlayer"><path codeLine="45" d="M333.766,331.023 C307.134,345.087 268.863,365.297 238.218,381.48 " fill="none" id="WordGiverable-to-HangManPlayer" style="stroke:#181818;stroke-width:1.0;"/><polygon fill="none" points="241.249,387.796,220.295,390.945,234.711,375.416,241.249,387.796" style="stroke:#181818;stroke-width:1.0;"/></g><!--MD5=[d2fcc7c7faae197e81541f2f243baa0c]
link WordGuesserable to HangManPlayer--><g id="link_WordGuesserable_HangManPlayer"><path codeLine="46" d="M469.704,331.023 C413.483,346.386 330.423,369.082 269.05,385.853 " fill="none" id="WordGuesserable-to-HangManPlayer" style="stroke:#181818;stroke-width:1.0;"/><polygon fill="none" points="270.681,392.664,249.543,391.183,266.99,379.159,270.681,392.664" style="stroke:#181818;stroke-width:1.0;"/></g><!--MD5=[a022fb779ffd0d47aef3a1a88d0e658e]
link Player to HangManPlayer--><g id="link_Player_HangManPlayer"><path codeLine="47" d="M231.279,331.241 C224.63,343.034 215.586,359.073 207.485,373.441 " fill="none" id="Player-to-HangManPlayer" style="stroke:#181818;stroke-width:1.0;stroke-dasharray:7.0,7.0;"/><polygon fill="none" points="213.58,376.885,197.659,390.868,201.385,370.009,213.58,376.885" style="stroke:#181818;stroke-width:1.0;"/></g><!--MD5=[ec0d76958232c3a8ebda2409291d22de]
reverse link WordGiverable to GiveWord--><g id="link_WordGiverable_GiveWord"><path codeLine="48" d="M296.055,334.741 C233.415,353.315 143.602,379.948 91.2859,395.461 " fill="none" id="WordGiverable-backto-GiveWord" style="stroke:#181818;stroke-width:1.0;"/><polygon fill="#181818" points="308.594,331.023,301.7045,328.8937,297.0891,334.4343,303.9786,336.5636,308.594,331.023" style="stroke:#181818;stroke-width:1.0;"/></g><!--MD5=[f751669b1e62f79db67b6d0bed86a644]
reverse link WordGuesserable to GuessWord--><g id="link_WordGuesserable_GuessWord"><path codeLine="49" d="M483.757,336.674 C448.215,353.379 400.631,375.743 368.286,390.945 " fill="none" id="WordGuesserable-backto-GuessWord" style="stroke:#181818;stroke-width:1.0;"/><polygon fill="#181818" points="495.782,331.023,488.6504,329.9555,484.922,336.1279,492.0536,337.1955,495.782,331.023" style="stroke:#181818;stroke-width:1.0;"/></g><!--MD5=[55119fd6dfd7fac9853004967a47f71e]
reverse link WordGuesserable to TryLetter--><g id="link_WordGuesserable_TryLetter"><path codeLine="50" d="M509.692,341.592 C496.793,357.545 480.968,377.119 469.851,390.868 " fill="none" id="WordGuesserable-backto-TryLetter" style="stroke:#181818;stroke-width:1.0;"/><polygon fill="#181818" points="518.06,331.241,511.1772,333.3919,510.5154,340.5726,517.3982,338.4217,518.06,331.241" style="stroke:#181818;stroke-width:1.0;"/></g><!--MD5=[130a9be81b7dee385253e9e6bd0ed74e]
reverse link WordGuesserable to AskForAHint--><g id="link_WordGuesserable_AskForAHint"><path codeLine="51" d="M548.032,342.981 C556.711,358.67 567.136,377.515 574.523,390.868 " fill="none" id="WordGuesserable-backto-AskForAHint" style="stroke:#181818;stroke-width:1.0;"/><polygon fill="#181818" points="541.538,331.241,540.9422,338.4274,547.3467,341.7414,547.9425,334.555,541.538,331.241" style="stroke:#181818;stroke-width:1.0;"/></g><!--MD5=[a0844d7426c666f4502798fc813803d2]
reverse link HangedMan to SecretWord--><g id="link_HangedMan_SecretWord"><path codeLine="53" d="M727.091,344.387 C725.616,359.785 723.881,377.912 722.64,390.868 " fill="none" id="HangedMan-backto-SecretWord" style="stroke:#181818;stroke-width:1.0;"/><polygon fill="#181818" points="728.349,331.241,723.7949,336.8321,727.2043,343.1863,731.7584,337.5952,728.349,331.241" style="stroke:#181818;stroke-width:1.0;"/></g><!--MD5=[3ff24b5a8b437c9727e80a3adc82102e]
reverse link HangedMan to GuessingAttempts--><g id="link_HangedMan_GuessingAttempts"><path codeLine="54" d="M791.523,327.928 C796.417,328.985 801.288,330.021 806,331 C867.165,343.71 1034.18,375.417 1132.31,393.938 " fill="none" id="HangedMan-backto-GuessingAttempts" style="stroke:#181818;stroke-width:1.0;"/><polygon fill="#181818" points="778.605,325.102,783.6113,330.2921,790.3277,327.667,785.3213,322.477,778.605,325.102" style="stroke:#181818;stroke-width:1.0;"/></g><!--MD5=[9644269fbdf07b9fcd53729a747be625]
reverse link HangedMan to RemainingAttempts--><g id="link_HangedMan_RemainingAttempts"><path codeLine="55" d="M769.712,337.776 C797.397,354.352 833.679,376.075 858.515,390.945 " fill="none" id="HangedMan-backto-RemainingAttempts" style="stroke:#181818;stroke-width:1.0;"/><polygon fill="#181818" points="758.432,331.023,761.525,337.5371,768.7276,337.1874,765.6346,330.6734,758.432,331.023" style="stroke:#181818;stroke-width:1.0;"/></g><!--MD5=[0ff14b77dadb88e742077ac28c70d26d]
reverse link HangedMan to GuiveAHint--><g id="link_HangedMan_GuiveAHint"><path codeLine="56" d="M791.243,331.99 C852.888,350.098 946.654,377.642 1002.771,394.126 " fill="none" id="HangedMan-backto-GuiveAHint" style="stroke:#181818;stroke-width:1.0;"/><polygon fill="#181818" points="778.601,328.277,783.2302,333.806,790.1144,331.6594,785.4852,326.1304,778.601,328.277" style="stroke:#181818;stroke-width:1.0;"/></g><!--MD5=[fdf0a126728f1fcb7a39ec4fa87ea205]
reverse link SecretWord to ListCharacters--><g id="link_SecretWord_ListCharacters"><path codeLine="58" d="M721,440.387 C721,455.785 721,473.912 721,486.868 " fill="none" id="SecretWord-backto-ListCharacters" style="stroke:#181818;stroke-width:1.0;"/><polygon fill="#181818" points="721,427.241,717,433.241,721,439.241,725,433.241,721,427.241" style="stroke:#181818;stroke-width:1.0;"/></g><!--MD5=[eda51fcea1339df4ea44bbc1af3c69df]
reverse link ListCharacters to Character--><g id="link_ListCharacters_Character"><path codeLine="60" d="M721,536.387 C721,551.785 721,569.912 721,582.868 " fill="none" id="ListCharacters-backto-Character" style="stroke:#181818;stroke-width:1.0;"/><polygon fill="#181818" points="721,523.241,717,529.241,721,535.241,725,529.241,721,523.241" style="stroke:#181818;stroke-width:1.0;"/><text fill="#000000" font-family="sans-serif" font-size="13" lengthAdjust="spacing" textLength="7" x="712.9281" y="572.06">*</text></g><!--MD5=[b0ea385653770683eff67ecdd8443425]
reverse link Character to Hidden--><g id="link_Character_Hidden"><path codeLine="61" d="M721,632.3873 C721,647.7845 721,665.9118 721,678.8683 " fill="none" id="Character-backto-Hidden" style="stroke:#181818;stroke-width:1.0;"/><polygon fill="#181818" points="721,619.241,717,625.241,721,631.241,725,625.241,721,619.241" style="stroke:#181818;stroke-width:1.0;"/></g><!--MD5=[8ac04b880b46f24ed0f7bdd09868620f]
@startuml
object HangMan
object SelectPlayers
object Round 
object Turn 
object HangedMan
object SecretWord
object Player
object WordGuesserable
object WordGiverable
object GiveWord
object GuessWord
object TryLetter
object AssignRoles
object StatisticsTempo
object GuessingAttempts
object AskForAHint
object RemainingAttempts
object GuiveAHint
object HangManPlayer
object ListCharacters
object Character
object Hidden

HangMan *- -"2" Round
HangMan ..>"2" SelectPlayers
HangMan *- ->"2" Player
HangMan *- - StatisticsTempo
HangMan *- - GuessingAttempts

Round - -> GuessingAttempts
Round *- -"*" Turn
Round *- - AssignRoles
AssignRoles ..> Player
AssignRoles ..> WordGiverable
AssignRoles ..> WordGuesserable
Round ..> StatisticsTempo

Turn ..> GuessingAttempts
Turn *- - HangedMan
Turn *- - WordGiverable
Turn *- - WordGuesserable
Turn - -> StatisticsTempo

SelectPlayers ..> Player
WordGiverable - -|> HangManPlayer
WordGuesserable - -|> HangManPlayer
Player ..|> HangManPlayer
WordGiverable *- - GiveWord
WordGuesserable *- - GuessWord
WordGuesserable *- - TryLetter
WordGuesserable *- - AskForAHint

HangedMan *- - SecretWord
HangedMan *- - GuessingAttempts
HangedMan *- - RemainingAttempts
HangedMan *- - GuiveAHint

SecretWord *-down- ListCharacters

ListCharacters *- -"*" Character
Character *- - Hidden
@enduml

PlantUML version 1.2022.7beta2(Unknown compile time)
(GPL source distribution)
Java Runtime: Java(TM) SE Runtime Environment
JVM: Java HotSpot(TM) 64-Bit Server VM
Default Encoding: UTF-8
Language: en
Country: US
--></g></svg>