<?xml version="1.0" encoding="UTF-8" standalone="no"?><svg xmlns="http://www.w3.org/2000/svg" xmlns:xlink="http://www.w3.org/1999/xlink" contentStyleType="text/css" height="433px" preserveAspectRatio="none" style="width:444px;height:433px;background:#FFFFFF;" version="1.1" viewBox="0 0 444 433" width="444px" zoomAndPan="magnify"><defs/><g><g id="elem_ListOfPlayers"><rect fill="#F1F1F1" height="36.2969" style="stroke:#181818;stroke-width:0.5;" width="108" x="80.5" y="7"/><text fill="#000000" font-family="sans-serif" font-size="14" lengthAdjust="spacing" textLength="94" x="87.5" y="21.9951">ListOfPlayers</text><line style="stroke:#181818;stroke-width:0.5;" x1="81.5" x2="187.5" y1="27.2969" y2="27.2969"/></g><g id="elem_Player"><rect fill="#F1F1F1" height="36.2969" style="stroke:#181818;stroke-width:0.5;" width="58" x="175.5" y="103"/><text fill="#000000" font-family="sans-serif" font-size="14" lengthAdjust="spacing" textLength="44" x="182.5" y="117.9951">Player</text><line style="stroke:#181818;stroke-width:0.5;" x1="176.5" x2="232.5" y1="123.2969" y2="123.2969"/></g><g id="elem_TypeGame"><rect fill="#F1F1F1" height="36.2969" style="stroke:#181818;stroke-width:0.5;" width="92" x="100.5" y="391"/><text fill="#000000" font-family="sans-serif" font-size="14" lengthAdjust="spacing" textLength="78" x="107.5" y="405.9951">TypeGame</text><line style="stroke:#181818;stroke-width:0.5;" x1="101.5" x2="191.5" y1="411.2969" y2="411.2969"/></g><g id="elem_ListResults"><rect fill="#F1F1F1" height="36.2969" style="stroke:#181818;stroke-width:0.5;" width="92" x="187.5" y="199"/><text fill="#000000" font-family="sans-serif" font-size="14" lengthAdjust="spacing" textLength="78" x="194.5" y="213.9951">ListResults</text><line style="stroke:#181818;stroke-width:0.5;" x1="188.5" x2="278.5" y1="219.2969" y2="219.2969"/></g><g id="elem_Result"><rect fill="#F1F1F1" height="36.2969" style="stroke:#181818;stroke-width:0.5;" width="59" x="258" y="295"/><text fill="#000000" font-family="sans-serif" font-size="14" lengthAdjust="spacing" textLength="45" x="265" y="309.9951">Result</text><line style="stroke:#181818;stroke-width:0.5;" x1="259" x2="316" y1="315.2969" y2="315.2969"/></g><g id="elem_Win"><rect fill="#F1F1F1" height="36.2969" style="stroke:#181818;stroke-width:0.5;" width="41" x="228" y="391"/><text fill="#000000" font-family="sans-serif" font-size="14" lengthAdjust="spacing" textLength="27" x="235" y="405.9951">Win</text><line style="stroke:#181818;stroke-width:0.5;" x1="229" x2="268" y1="411.2969" y2="411.2969"/></g><g id="elem_Lost"><rect fill="#F1F1F1" height="36.2969" style="stroke:#181818;stroke-width:0.5;" width="45" x="304" y="391"/><text fill="#000000" font-family="sans-serif" font-size="14" lengthAdjust="spacing" textLength="31" x="311" y="405.9951">Lost</text><line style="stroke:#181818;stroke-width:0.5;" x1="305" x2="348" y1="411.2969" y2="411.2969"/></g><g id="elem_Tie"><rect fill="#F1F1F1" height="36.2969" style="stroke:#181818;stroke-width:0.5;" width="36" x="384.5" y="391"/><text fill="#000000" font-family="sans-serif" font-size="14" lengthAdjust="spacing" textLength="22" x="391.5" y="405.9951">Tie</text><line style="stroke:#181818;stroke-width:0.5;" x1="385.5" x2="419.5" y1="411.2969" y2="411.2969"/></g><g id="elem_SelectPlayer"><rect fill="#F1F1F1" height="36.2969" style="stroke:#181818;stroke-width:0.5;" width="104" x="223.5" y="7"/><text fill="#000000" font-family="sans-serif" font-size="14" lengthAdjust="spacing" textLength="90" x="230.5" y="21.9951">SelectPlayer</text><line style="stroke:#181818;stroke-width:0.5;" x1="224.5" x2="326.5" y1="27.2969" y2="27.2969"/></g><g id="elem_SelectStatisticsGame"><rect fill="#F1F1F1" height="36.2969" style="stroke:#181818;stroke-width:0.5;" width="170" x="268.5" y="103"/><text fill="#000000" font-family="sans-serif" font-size="14" lengthAdjust="spacing" textLength="156" x="275.5" y="117.9951">SelectStatisticsGame</text><line style="stroke:#181818;stroke-width:0.5;" x1="269.5" x2="437.5" y1="123.2969" y2="123.2969"/></g><g id="elem_StatisticsTempo"><rect fill="#F1F1F1" height="36.2969" style="stroke:#181818;stroke-width:0.5;" width="133" x="7" y="103"/><text fill="#000000" font-family="sans-serif" font-size="14" lengthAdjust="spacing" textLength="119" x="14" y="117.9951">StatisticsTempo</text><line style="stroke:#181818;stroke-width:0.5;" x1="8" x2="139" y1="123.2969" y2="123.2969"/></g><g id="elem_SaveStatistics"><rect fill="#F1F1F1" height="36.2969" style="stroke:#181818;stroke-width:0.5;" width="116" x="15.5" y="199"/><text fill="#000000" font-family="sans-serif" font-size="14" lengthAdjust="spacing" textLength="102" x="22.5" y="213.9951">SaveStatistics</text><line style="stroke:#181818;stroke-width:0.5;" x1="16.5" x2="130.5" y1="219.2969" y2="219.2969"/></g><!--MD5=[2833e1afc810982bc559a78da80cc4ee]
reverse link ListOfPlayers to Player--><g id="link_ListOfPlayers_Player"><path codeLine="15" d="M155.39,54.053 C167.207,69.921 181.602,89.251 191.742,102.868 " fill="none" id="ListOfPlayers-backto-Player" style="stroke:#181818;stroke-width:1.0;"/><polygon fill="#181818" points="147.339,43.241,147.7142,50.4423,154.5058,52.8658,154.1307,45.6644,147.339,43.241" style="stroke:#181818;stroke-width:1.0;"/></g><!--MD5=[57f7e8c08460cedcf544f70b5cda3b7e]
reverse link Player to ListResults--><g id="link_Player_ListResults"><path codeLine="16" d="M213.73,151.917 C218.511,167.414 224.177,185.78 228.215,198.868 " fill="none" id="Player-backto-ListResults" style="stroke:#181818;stroke-width:1.0;"/><polygon fill="#181818" points="209.819,139.241,207.7659,146.1537,213.3572,150.7075,215.4103,143.7949,209.819,139.241" style="stroke:#181818;stroke-width:1.0;"/><text fill="#000000" font-family="sans-serif" font-size="13" lengthAdjust="spacing" textLength="23" x="200.0746" y="188.06">0..*</text></g><!--MD5=[363592f37d2a7cf08b386badf078e773]
reverse link ListResults to Result--><g id="link_ListResults_Result"><path codeLine="17" d="M249.882,246.516 C258.947,262.296 269.911,281.383 277.658,294.868 " fill="none" id="ListResults-backto-Result" style="stroke:#181818;stroke-width:1.0;"/><polygon fill="#181818" points="243.404,235.241,242.9246,242.4362,249.3819,245.646,249.8613,238.4509,243.404,235.241" style="stroke:#181818;stroke-width:1.0;"/></g><!--MD5=[97d078843ab111b67e90ee60f810d76e]
reverse link Result to TypeGame--><g id="link_Result_TypeGame"><path codeLine="18" d="M250.869,338.4208 C226.222,354.8523 194.33,376.1133 172.321,390.7863 " fill="none" id="Result-backto-TypeGame" style="stroke:#181818;stroke-width:1.0;"/><polygon fill="#181818" points="261.966,331.0227,254.7549,331.0228,251.9815,337.6793,259.1926,337.6792,261.966,331.0227" style="stroke:#181818;stroke-width:1.0;"/></g><!--MD5=[6ced6f23167f7f7560482c58dc4ec83d]
reverse link Result to Win--><g id="link_Result_Win"><path codeLine="19" d="M275.282,343.4481 C268.812,359.0425 261.093,377.6473 255.608,390.8683 " fill="none" id="Result-backto-Win" style="stroke:#181818;stroke-width:1.0;"/><polygon fill="#181818" points="280.347,331.241,274.3531,335.2502,275.7486,342.325,281.7425,338.3158,280.347,331.241" style="stroke:#181818;stroke-width:1.0;"/></g><!--MD5=[ca098c113371ed4e6de24d18d9575520]
reverse link Result to Lost--><g id="link_Result_Lost"><path codeLine="20" d="M299.718,343.4481 C306.188,359.0425 313.907,377.6473 319.392,390.8683 " fill="none" id="Result-backto-Lost" style="stroke:#181818;stroke-width:1.0;"/><polygon fill="#181818" points="294.653,331.241,293.2575,338.3158,299.2514,342.325,300.6469,335.2502,294.653,331.241" style="stroke:#181818;stroke-width:1.0;"/></g><!--MD5=[e77275aab3b0905ae98c38291bb691b2]
reverse link Result to Tie--><g id="link_Result_Tie"><path codeLine="21" d="M318.432,339.2839 C339.559,356.5523 366.818,378.834 384.476,393.2673 " fill="none" id="Result-backto-Tie" style="stroke:#181818;stroke-width:1.0;"/><polygon fill="#181818" points="308.326,331.0227,310.4395,337.9171,317.6165,338.6179,315.503,331.7235,308.326,331.0227" style="stroke:#181818;stroke-width:1.0;"/></g><!--MD5=[87dff6306f6a9edb8873e1ce6da06963]
reverse link ListOfPlayers to SelectPlayer--><g id="link_ListOfPlayers_SelectPlayer"><path codeLine="23" d="M193.882,25 C203.694,25 213.505,25 223.316,25 " fill="none" id="ListOfPlayers-backto-SelectPlayer" style="stroke:#181818;stroke-width:1.0;stroke-dasharray:7.0,7.0;"/><polygon fill="#181818" points="188.752,25,197.752,29,193.752,25,197.752,21,188.752,25" style="stroke:#181818;stroke-width:1.0;"/></g><!--MD5=[5156db3aeea850fec538cda5af13f258]
link SelectPlayer to Player--><g id="link_SelectPlayer_Player"><path codeLine="24" d="M262.478,43.241 C250.668,58.877 233.22,81.977 220.551,98.749 " fill="none" id="SelectPlayer-to-Player" style="stroke:#181818;stroke-width:1.0;stroke-dasharray:7.0,7.0;"/><polygon fill="#181818" points="217.44,102.868,226.0556,98.096,220.453,98.8778,219.6713,93.2752,217.44,102.868" style="stroke:#181818;stroke-width:1.0;"/></g><!--MD5=[f2a96e1ff004d1d790c0e8e00b5ecb3c]
link SelectStatisticsGame to ListResults--><g id="link_SelectStatisticsGame_ListResults"><path codeLine="26" d="M331.769,139.023 C311.507,154.895 281.251,178.595 259.67,195.5 " fill="none" id="SelectStatisticsGame-to-ListResults" style="stroke:#181818;stroke-width:1.0;stroke-dasharray:7.0,7.0;"/><polygon fill="#181818" points="255.475,198.786,265.0272,196.3868,259.4117,195.7035,260.0951,190.088,255.475,198.786" style="stroke:#181818;stroke-width:1.0;"/></g><!--MD5=[6c0c1f0c404d94b3686e7487ddc655dc]
link SelectStatisticsGame to Result--><g id="link_SelectStatisticsGame_Result"><path codeLine="27" d="M347.527,139.196 C335.501,173.816 308.389,251.864 295.114,290.08 " fill="none" id="SelectStatisticsGame-to-Result" style="stroke:#181818;stroke-width:1.0;stroke-dasharray:7.0,7.0;"/><polygon fill="#181818" points="293.412,294.979,300.1449,287.791,295.0534,290.2561,292.5883,285.1646,293.412,294.979" style="stroke:#181818;stroke-width:1.0;"/></g><!--MD5=[080f83715d71d3f07d30f28377331234]
reverse link StatisticsTempo to Player--><g id="link_StatisticsTempo_Player"><path codeLine="29" d="M153.246,121 C160.592,121 167.938,121 175.284,121 " fill="none" id="StatisticsTempo-backto-Player" style="stroke:#181818;stroke-width:1.0;"/><polygon fill="#181818" points="140.023,121,146.023,125,152.023,121,146.023,117,140.023,121" style="stroke:#181818;stroke-width:1.0;"/></g><!--MD5=[7fbe347e754b79f1ec4f6bf6a6845751]
reverse link StatisticsTempo to ListResults--><g id="link_StatisticsTempo_ListResults"><path codeLine="30" d="M113.971,145.776 C142.185,162.352 179.16,184.075 204.471,198.945 " fill="none" id="StatisticsTempo-backto-ListResults" style="stroke:#181818;stroke-width:1.0;"/><polygon fill="#181818" points="102.4748,139.023,105.6222,145.511,112.8216,145.1011,109.6742,138.6131,102.4748,139.023" style="stroke:#181818;stroke-width:1.0;"/></g><!--MD5=[79497e9a9a0d039c512cd35862ff8e06]
reverse link StatisticsTempo to SaveStatistics--><g id="link_StatisticsTempo_SaveStatistics"><path codeLine="31" d="M73.5,152.387 C73.5,167.785 73.5,185.912 73.5,198.868 " fill="none" id="StatisticsTempo-backto-SaveStatistics" style="stroke:#181818;stroke-width:1.0;"/><polygon fill="#181818" points="73.5,139.241,69.5,145.241,73.5,151.241,77.5,145.241,73.5,139.241" style="stroke:#181818;stroke-width:1.0;"/></g><!--MD5=[67e6e4b0afc1cd8992a97d96397018f2]
@startuml
object ListOfPlayers
object Player
object TypeGame
object ListResults
object Result
object Win
object Lost
object Tie

object SelectPlayer
object SelectStatisticsGame
object StatisticsTempo
object SaveStatistics

ListOfPlayers *-down- Player
Player *- -"0..*" ListResults
ListResults *- - Result
Result *- - TypeGame
Result *- - Win
Result *- - Lost
Result *- - Tie

SelectPlayer .left.> ListOfPlayers
SelectPlayer ..> Player

SelectStatisticsGame ..> ListResults
SelectStatisticsGame ..> Result

StatisticsTempo *-right- Player
StatisticsTempo *- - ListResults
StatisticsTempo *- - SaveStatistics
@enduml

PlantUML version 1.2022.7beta2(Unknown compile time)
(GPL source distribution)
Java Runtime: Java(TM) SE Runtime Environment
JVM: Java HotSpot(TM) 64-Bit Server VM
Default Encoding: UTF-8
Language: en
Country: US
--></g></svg>